# xmcd
#
# Track frame offsets:
#       150
#       18025
#       38397
#       56745
#       75627
#
# Disc length: 1256 seconds
#
# Revision: 0
# Processed by: cddbd v1.4PL0 Copyright (c) Steve Scherf et al.
# Submitted via: CD-DA_X-Tractor v0.23
#
DISCID=2a04e605
DTITLE=Lonestar - Amazed
DYEAR=2000
DGENRE=Country
TTITLE0=Amazed - Mainstream Acoustic Version
TTITLE1=Amazed - Captain Mix
TTITLE2=Amazed - AC Mix
TTITLE3=Amazed - Mainstream Mix (V.U.)
TTITLE4=Amazed - Mainstream Mix
EXTD=
EXTT0=
EXTT1=
EXTT2=
EXTT3=
EXTT4=
PLAYORDER=
